<?xml version="1.0" encoding="UTF-8"?>
<svg xmlns="http://www.w3.org/2000/svg" xmlns:xlink="http://www.w3.org/1999/xlink" id="Travel" viewBox="0 0 64 64" width="512" height="512"><defs><linearGradient id="gradient_ice" x1="4.297" y1="68.749" x2="57.948" y2="-0.682" gradientUnits="userSpaceOnUse"><stop offset="0" stop-color="#fff200"/><stop offset="1" stop-color="#cd118c"/></linearGradient><linearGradient id="gradient_ice-2" x1="3.379" y1="68.039" x2="57.03" y2="-1.391" xlink:href="#gradient_ice"/></defs><path d="M55.79,17a25.042,25.042,0,0,0-1.89-2.77C55.05,12.41,56,10.47,56,9A7,7,0,0,0,42.57,6.23,23.99,23.99,0,0,0,14,40.61V44H10.01L8.95,40.69A1,1,0,0,0,8,40H4a1,1,0,0,0-1,1V55a1,1,0,0,0,1,1H8a1,1,0,0,0,.95-.69L10.01,52H14v9a1,1,0,0,0,1,1h4a1.016,1.016,0,0,0,.91-.58L24.25,52h3.93A24,24,0,0,0,55.79,17ZM49,4a5,5,0,0,1,5,5c0,1.91-2.82,5.88-5,8.47-2.18-2.59-5-6.56-5-8.47A5,5,0,0,1,49,4ZM24,9.95A21.786,21.786,0,0,1,36.28,7.04a3.171,3.171,0,0,1-.07.5,7.408,7.408,0,0,0-1.65,2.89,13.7,13.7,0,0,1-1,2.08c-.86.5-3.1,3.23-4.24,4.67L21.4,18.5,16,17.98A21.693,21.693,0,0,1,24,9.95ZM30,50H23.62a1,1,0,0,0-.91.58L18.36,60H16V51a1,1,0,0,0-1-1H9.29a1.012,1.012,0,0,0-.96.69L7.27,54H5V42H7.27l1.06,3.31a1.012,1.012,0,0,0,.96.69H15a1,1,0,0,0,1-1V36h2.36l4.35,9.42a1,1,0,0,0,.91.58H30a2,2,0,0,1,0,4Zm6.19.98a21.843,21.843,0,0,1-3.43-.09A4,4,0,0,0,30,44H24.25l-4.34-9.42A1.016,1.016,0,0,0,19,34H15a1,1,0,0,0-1,1v.52a21.94,21.94,0,0,1-.95-7.29L18,27.06l3.86,3.03a.87.87,0,0,0,.46.2l5.27.8a5.389,5.389,0,0,0,.12,3.28c.09.16.24.58.39.98.54,1.52,1.23,3.41,2.71,3.81.63.17,2.6,2.04,4.11,3.74l1.51,4.46ZM46,48.05a21.923,21.923,0,0,1-7.79,2.73l.23-3.49a1.306,1.306,0,0,0-.05-.39l-1.64-4.83a.984.984,0,0,0-.2-.34c-.83-.95-3.68-4.09-5.22-4.5-.48-.13-1.11-1.89-1.35-2.56a10.068,10.068,0,0,0-.53-1.29,7.4,7.4,0,0,1,.32-2.85,1,1,0,0,0-.13-.81.981.981,0,0,0-.69-.44l-6.07-.93-4.02-3.16a1,1,0,0,0-.85-.19l-4.78,1.13a22.207,22.207,0,0,1,1.79-6.24l6.32.61a.34.34,0,0,0,.1.01c.05,0,.11-.01.16-.01l8.43-1.41a.986.986,0,0,0,.62-.36,39.992,39.992,0,0,1,3.91-4.49c.69-.4,1.13-1.36,1.84-3.02a14.378,14.378,0,0,1,.99-2.08,2.214,2.214,0,0,0,.88-1.9,22.674,22.674,0,0,1,3.78.93A7.55,7.55,0,0,0,42,9a7.165,7.165,0,0,0,.75,2.77l-.55,2.82-4.84,4.99-5.93,5.74a.989.989,0,0,0-.29.86l.77,5.33a1.163,1.163,0,0,0,.04.18l1.64,4.83a1.006,1.006,0,0,0,.56.6l4.54,1.94,3.18,1.57,5.47,3.61,1.92,1.5A21.543,21.543,0,0,1,46,48.05ZM56.25,34.7a21.8,21.8,0,0,1-5.51,9.66l-2.23-1.74-5.59-3.7a1.091,1.091,0,0,0-.11-.06l-3.29-1.62-4.18-1.78-1.46-4.32-.69-4.74L38.78,21l5.06-5.23a1.081,1.081,0,0,0,.26-.51l.16-.79a46.283,46.283,0,0,0,4,5.2.995.995,0,0,0,1.48,0,47.259,47.259,0,0,0,2.97-3.7A22.225,22.225,0,0,1,54.05,18,21.866,21.866,0,0,1,56.25,34.7Z" style="fill:url(#gradient_ice)"/><path d="M52,9a3,3,0,1,0-3,3A3,3,0,0,0,52,9ZM48,9a1,1,0,1,1,1,1A1,1,0,0,1,48,9Z" style="fill:url(#gradient_ice-2)"/></svg>
